<?xml version="1.0" encoding="utf-8"?>
<!-- Generator: Adobe Illustrator 16.0.0, SVG Export Plug-In . SVG Version: 6.00 Build 0)  -->
<!DOCTYPE svg PUBLIC "-//W3C//DTD SVG 1.1//EN" "http://www.w3.org/Graphics/SVG/1.1/DTD/svg11.dtd">
<svg version="1.1" id="レイヤー_1" xmlns="http://www.w3.org/2000/svg" xmlns:xlink="http://www.w3.org/1999/xlink" x="0px"
	 y="0px" width="1133.86px" height="850.39px" viewBox="0 0 1133.86 850.39" enable-background="new 0 0 1133.86 850.39"
	 xml:space="preserve">
<path d="M422.758,419.458c-3.369-2.475-7.333-3.779-11.521-3.781c-10.889,0.005-19.764,9.049-19.784,20.161
	c0.02,11.111,8.895,20.156,19.784,20.162c4.188-0.004,8.152-1.307,11.521-3.781v3.775h8.629v-39.925h-8.629V419.458z
	 M422.758,442.051c0,4.873-3.562,10.313-11.521,10.313c-8.904,0-16.15-7.413-16.153-16.526c0.003-9.112,7.249-16.527,16.153-16.527
	c6.784,0,11.521,4.745,11.521,10.792V442.051z"/>
<path d="M678.088,419.458c-3.368-2.475-7.333-3.779-11.521-3.781c-10.889,0.005-19.764,9.049-19.783,20.161
	c0.02,11.111,8.895,20.156,19.783,20.162c4.188-0.004,8.153-1.307,11.521-3.781v3.775h8.631v-39.925h-8.631V419.458z
	 M678.088,442.051c0,4.873-3.562,10.313-11.521,10.313c-8.903,0-16.149-7.413-16.15-16.526c0.001-9.112,7.247-16.527,16.15-16.527
	c6.785,0,11.521,4.745,11.521,10.792V442.051z"/>
<path d="M723.342,415.67c-4.193,0.003-8.161,1.307-11.531,3.783v-23.485h-8.636v60.026h8.636v-3.771
	c3.367,2.475,7.334,3.779,11.531,3.783c10.884-0.007,19.753-9.054,19.771-20.168C743.095,424.722,734.226,415.675,723.342,415.67
	 M723.342,452.469c-7.923,0-11.531-5.65-11.531-10.416V430.1c0-6.119,4.85-11.084,11.531-11.084c8.896,0,16.137,7.545,16.139,16.823
	C739.479,445.01,732.238,452.469,723.342,452.469"/>
<rect x="624.611" y="395.969" width="8.636" height="60.026"/>
<path d="M572.734,414.684c-11.976,0-20.667,8.776-20.667,20.866c0,12.091,8.688,20.867,20.658,20.867h0.009
	c12.169-0.007,20.668-8.587,20.668-20.867C593.402,423.07,585.097,414.684,572.734,414.684 M572.734,453.189
	c-5.726,0-10.636-3.388-10.636-7.472v-20.336c0-4.084,4.91-7.47,10.636-7.47c9.976,0,17.219,7.419,17.222,17.638
	C589.953,445.77,582.71,453.189,572.734,453.189"/>
<path d="M468.948,415.593c-5.99,0-10.208,2.021-12.749,4.444l0.001-3.96h-8.353l-0.003,39.925h8.354c0,0,0.033-26.857,0.05-26.861
	c0.005-6.165,3.901-10.115,10.068-10.115c6.162,0,10.056,3.946,10.066,10.102c0.019,0.008,0.049,26.875,0.049,26.875l8.916-0.003
	l0.003-25.004C485.35,419.864,476.359,415.593,468.948,415.593"/>
<path d="M522.131,415.593c-5.99,0-10.208,2.021-12.749,4.444l0.001-3.96h-8.353l-0.003,39.925h8.353c0,0,0.034-26.857,0.051-26.861
	c0.005-6.165,3.901-10.115,10.067-10.115c6.163,0,10.057,3.946,10.067,10.102c0.018,0.008,0.049,26.875,0.049,26.875l8.916-0.003
	l0.003-25.004C538.533,419.864,529.542,415.593,522.131,415.593"/>
</svg>
