<?xml version="1.0" encoding="utf-8"?>
<!-- Generator: Adobe Illustrator 16.0.0, SVG Export Plug-In . SVG Version: 6.00 Build 0)  -->
<!DOCTYPE svg PUBLIC "-//W3C//DTD SVG 1.1//EN" "http://www.w3.org/Graphics/SVG/1.1/DTD/svg11.dtd">
<svg version="1.1" id="レイヤー_1" xmlns="http://www.w3.org/2000/svg" xmlns:xlink="http://www.w3.org/1999/xlink" x="0px"
	 y="0px" width="595.28px" height="841.89px" viewBox="0 0 595.28 841.89" enable-background="new 0 0 595.28 841.89"
	 xml:space="preserve">
<g>
	<path d="M-2.918-0.377c0.708,0.228,1.127,0.911,1.343,1.907C-1.288,2.849-1.083,3.652-0.904,4h-1.031
		c-0.144-0.264-0.348-1.067-0.588-2.207C-2.787,0.522-3.291-0.042-4.37-0.042h-1.115V4H-6.48v-9.007
		c0.563-0.12,1.355-0.192,2.075-0.192c1.188,0,1.967,0.24,2.507,0.743c0.432,0.396,0.684,1.02,0.684,1.703
		c0,1.211-0.732,1.991-1.703,2.339V-0.377z M-4.31-0.81c1.271,0,2.086-0.719,2.086-1.823c0-1.355-1.019-1.775-2.135-1.775
		c-0.54,0-0.923,0.048-1.127,0.096v3.502H-4.31z"/>
	<path d="M2.53,4v-8.047H2.506L1.031-3.196l-0.24-0.744L2.65-4.983h0.852V4H2.53z"/>
</g>
</svg>
