<?xml version="1.0" encoding="utf-8"?>
<!-- Generator: Adobe Illustrator 16.0.0, SVG Export Plug-In . SVG Version: 6.00 Build 0)  -->
<!DOCTYPE svg PUBLIC "-//W3C//DTD SVG 1.1//EN" "http://www.w3.org/Graphics/SVG/1.1/DTD/svg11.dtd">
<svg version="1.1" id="レイヤー_1" xmlns="http://www.w3.org/2000/svg" xmlns:xlink="http://www.w3.org/1999/xlink" x="0px"
	 y="0px" width="595.28px" height="841.89px" viewBox="0 0 595.28 841.89" enable-background="new 0 0 595.28 841.89"
	 xml:space="preserve">
<g>
	<path d="M-6.586,4v-8.59h4.424c0.82,0,1.447,0.07,1.881,0.211s0.783,0.401,1.049,0.782s0.398,0.845,0.398,1.392
		c0,0.477-0.102,0.888-0.305,1.233C0.658-0.626,0.378-0.346,0.023-0.131c-0.227,0.137-0.538,0.25-0.932,0.34
		c0.316,0.105,0.546,0.211,0.691,0.317c0.097,0.07,0.239,0.221,0.424,0.452c0.186,0.23,0.31,0.408,0.372,0.533L1.863,4h-2.999
		l-1.419-2.625c-0.18-0.34-0.34-0.561-0.48-0.662c-0.191-0.133-0.408-0.199-0.65-0.199H-3.92V4H-6.586z M-3.92-1.109h1.119
		c0.121,0,0.355-0.039,0.703-0.117c0.176-0.035,0.319-0.125,0.431-0.27S-1.5-1.807-1.5-1.994c0-0.277-0.088-0.49-0.264-0.639
		s-0.506-0.223-0.99-0.223H-3.92V-1.109z"/>
	<path d="M9.311,4H2.15c0.082-0.707,0.331-1.372,0.747-1.995s1.196-1.358,2.341-2.206c0.699-0.52,1.146-0.914,1.342-1.184
		S6.873-1.91,6.873-2.152c0-0.262-0.097-0.485-0.29-0.671S6.146-3.102,5.854-3.102c-0.305,0-0.554,0.096-0.747,0.287
		s-0.323,0.529-0.39,1.014L2.326-1.994C2.42-2.666,2.592-3.19,2.842-3.567s0.603-0.666,1.058-0.867s1.085-0.302,1.89-0.302
		c0.84,0,1.493,0.096,1.96,0.287s0.834,0.485,1.102,0.882s0.401,0.841,0.401,1.333c0,0.523-0.153,1.023-0.46,1.5
		s-0.864,1-1.673,1.57C6.639,1.168,6.317,1.4,6.155,1.533S5.803,1.84,5.584,2.055h3.727V4z"/>
</g>
</svg>
