<?xml version="1.0" encoding="utf-8"?>
<!-- Generator: Adobe Illustrator 16.0.0, SVG Export Plug-In . SVG Version: 6.00 Build 0)  -->
<!DOCTYPE svg PUBLIC "-//W3C//DTD SVG 1.1//EN" "http://www.w3.org/Graphics/SVG/1.1/DTD/svg11.dtd">
<svg version="1.1" id="レイヤー_1" xmlns="http://www.w3.org/2000/svg" xmlns:xlink="http://www.w3.org/1999/xlink" x="0px"
	 y="0px" width="595.28px" height="841.89px" viewBox="0 0 595.28 841.89" enable-background="new 0 0 595.28 841.89"
	 xml:space="preserve">
<g>
	<path d="M-1.971,4l-1.667-3.406h-1.199V4h-1.667v-8.54h3.346c1.739,0,2.771,1.188,2.771,2.615c0,1.199-0.732,1.943-1.56,2.243
		L-0.04,4H-1.971z M-3.266-3.052h-1.571v2.255h1.571c0.731,0,1.211-0.468,1.211-1.127S-2.535-3.052-3.266-3.052z"/>
	<path d="M3.574,4.072c-1.391,0-2.698-0.731-2.722-2.519h1.559c0.024,0.768,0.552,1.116,1.163,1.116c0.672,0,1.151-0.42,1.151-1.188
		c0-0.708-0.432-1.175-1.199-1.175H3.298v-1.355h0.228c0.755,0,1.08-0.468,1.08-1.067c0-0.72-0.48-1.091-1.043-1.091
		c-0.588,0-1.02,0.384-1.056,1.031H0.948C0.984-3.7,2.123-4.611,3.562-4.611c1.511,0,2.603,1.007,2.603,2.447
		c0,0.923-0.42,1.451-0.983,1.751C5.793-0.09,6.285,0.498,6.285,1.529C6.285,3.232,5.038,4.072,3.574,4.072z"/>
</g>
</svg>
