<?xml version="1.0" encoding="utf-8"?>
<!-- Generator: Adobe Illustrator 16.0.0, SVG Export Plug-In . SVG Version: 6.00 Build 0)  -->
<!DOCTYPE svg PUBLIC "-//W3C//DTD SVG 1.1//EN" "http://www.w3.org/Graphics/SVG/1.1/DTD/svg11.dtd">
<svg version="1.1" id="レイヤー_1" xmlns="http://www.w3.org/2000/svg" xmlns:xlink="http://www.w3.org/1999/xlink" x="0px"
	 y="0px" width="595.28px" height="841.89px" viewBox="0 0 595.28 841.89" enable-background="new 0 0 595.28 841.89"
	 xml:space="preserve">
<g>
	<path d="M-5.689-3.952c0.516-0.12,1.271-0.192,1.991-0.192c0.78,0,1.523,0.156,2.027,0.528c0.456,0.312,0.768,0.804,0.768,1.463
		c0,1.188-0.839,2.003-1.871,2.315l-0.012,0.036c0.528,0.204,0.756,0.768,0.828,1.535C-1.863,2.741-1.803,3.676-1.671,4H-3.11
		c-0.06-0.192-0.144-0.959-0.216-1.931c-0.06-1.031-0.432-1.403-1.175-1.403h-0.684L-5.821,4H-7.2L-5.689-3.952z M-4.981-0.401
		h0.792c1.091,0,1.823-0.672,1.823-1.547c0-0.744-0.588-1.08-1.379-1.08c-0.348,0-0.576,0.024-0.744,0.072L-4.981-0.401z"/>
	<path d="M2.254,4l0.384-2.003h-3.334l0.18-0.936l3.91-4.857h1.655L4.161,0.906h0.972L4.929,1.997H3.957L3.573,4H2.254z
		 M2.842,0.906l0.432-2.099C3.37-1.649,3.501-2.141,3.609-2.584H3.562c-0.336,0.504-0.6,0.936-0.959,1.416L0.923,0.882L0.911,0.906
		H2.842z"/>
</g>
</svg>
