<?xml version="1.0" encoding="utf-8"?>
<!-- Generator: Adobe Illustrator 16.0.0, SVG Export Plug-In . SVG Version: 6.00 Build 0)  -->
<!DOCTYPE svg PUBLIC "-//W3C//DTD SVG 1.1//EN" "http://www.w3.org/Graphics/SVG/1.1/DTD/svg11.dtd">
<svg version="1.1" id="レイヤー_1" xmlns="http://www.w3.org/2000/svg" xmlns:xlink="http://www.w3.org/1999/xlink" x="0px"
	 y="0px" width="595.28px" height="841.89px" viewBox="0 0 595.28 841.89" enable-background="new 0 0 595.28 841.89"
	 xml:space="preserve">
<g>
	<path d="M-6.324-1.112c0-0.528-0.01-1.046-0.03-1.554C-6.374-3.174-6.396-3.692-6.42-4.22c0.232,0.016,0.46,0.03,0.684,0.042
		C-5.512-4.166-5.284-4.16-5.052-4.16c0.232,0,0.459-0.01,0.684-0.03s0.452-0.03,0.684-0.03c0.336,0,0.656,0.032,0.96,0.096
		s0.57,0.17,0.798,0.318c0.228,0.148,0.408,0.342,0.54,0.582c0.132,0.24,0.198,0.54,0.198,0.9c0,0.384-0.086,0.714-0.258,0.99
		C-1.618-1.058-1.828-0.83-2.076-0.65C-2.324-0.47-2.59-0.33-2.874-0.23c-0.284,0.1-0.542,0.166-0.774,0.198
		c0.096,0.12,0.228,0.288,0.396,0.504c0.168,0.216,0.356,0.454,0.564,0.714c0.208,0.26,0.424,0.532,0.648,0.816
		c0.224,0.284,0.44,0.556,0.648,0.816c0.208,0.26,0.404,0.498,0.588,0.714c0.184,0.216,0.332,0.38,0.444,0.492
		C-0.48,4.008-0.6,4-0.72,4c-0.12,0-0.24,0-0.36,0c-0.112,0-0.228,0-0.348,0c-0.12,0-0.236,0.008-0.348,0.024
		c-0.12-0.168-0.302-0.42-0.546-0.756c-0.244-0.336-0.514-0.696-0.81-1.08C-3.428,1.804-3.73,1.422-4.038,1.042
		s-0.59-0.702-0.846-0.966H-5.34v0.876c0,0.528,0.01,1.048,0.03,1.56c0.02,0.512,0.042,1.016,0.066,1.512
		C-5.428,4.008-5.624,4-5.832,4S-6.236,4.008-6.42,4.024c0.024-0.496,0.046-1,0.066-1.512c0.02-0.512,0.03-1.032,0.03-1.56V-1.112z
		 M-5.34-0.428c0.112,0.024,0.234,0.041,0.366,0.048c0.132,0.008,0.278,0.012,0.438,0.012c0.248,0,0.506-0.028,0.774-0.084
		c0.268-0.056,0.514-0.154,0.738-0.294c0.224-0.14,0.41-0.328,0.558-0.564c0.148-0.236,0.222-0.534,0.222-0.894
		c0-0.312-0.058-0.57-0.174-0.774c-0.116-0.204-0.266-0.366-0.45-0.486c-0.184-0.12-0.384-0.202-0.6-0.246
		c-0.216-0.044-0.428-0.066-0.636-0.066c-0.28,0-0.512,0.006-0.696,0.018c-0.184,0.012-0.34,0.026-0.468,0.042
		C-5.284-3.276-5.3-2.84-5.316-2.408C-5.332-1.976-5.34-1.544-5.34-1.112V-0.428z"/>
	<path d="M2.25-0.71C2.438-0.77,2.712-0.8,3.072-0.8c0.352,0,0.67,0.06,0.954,0.18C4.31-0.5,4.552-0.336,4.752-0.128
		s0.354,0.448,0.462,0.72c0.108,0.272,0.162,0.56,0.162,0.864c0,0.376-0.072,0.73-0.216,1.062s-0.348,0.62-0.612,0.864
		C4.284,3.626,3.97,3.816,3.606,3.952c-0.364,0.136-0.77,0.204-1.218,0.204c-0.36,0-0.706-0.03-1.038-0.09S0.724,3.888,0.468,3.712
		V3.616c0.04-0.104,0.076-0.222,0.108-0.354C0.608,3.13,0.632,3.016,0.648,2.92h0.084c0.072,0.144,0.17,0.272,0.294,0.384
		C1.15,3.416,1.29,3.51,1.446,3.586c0.156,0.076,0.32,0.132,0.492,0.168s0.338,0.054,0.498,0.054c0.24,0,0.47-0.044,0.69-0.132
		c0.22-0.088,0.414-0.224,0.582-0.408s0.304-0.416,0.408-0.696c0.104-0.28,0.156-0.607,0.156-0.984c0-0.336-0.048-0.624-0.144-0.864
		C4.032,0.484,3.906,0.288,3.75,0.136c-0.156-0.152-0.334-0.262-0.534-0.33c-0.2-0.068-0.408-0.102-0.624-0.102
		c-0.336,0-0.608,0.054-0.816,0.162C1.568-0.026,1.428,0.052,1.356,0.1L1.224,0.016c0.056-0.312,0.09-0.642,0.102-0.99
		c0.012-0.348,0.018-0.694,0.018-1.038c0-0.336-0.006-0.682-0.018-1.038C1.314-3.406,1.288-3.72,1.248-3.992l0.108-0.072
		c0.136,0.024,0.36,0.048,0.672,0.072c0.352,0.024,0.84,0.036,1.464,0.036c0.384,0,0.724-0.002,1.02-0.006
		c0.296-0.004,0.516-0.01,0.66-0.018l0.06,0.048C5.2-3.828,5.178-3.718,5.166-3.602C5.154-3.486,5.148-3.372,5.148-3.26
		c0,0.112,0.004,0.18,0.012,0.204C4.984-3.088,4.75-3.114,4.458-3.134S3.86-3.17,3.54-3.182c-0.32-0.012-0.628-0.02-0.924-0.024
		C2.32-3.21,2.08-3.212,1.896-3.212L1.728-0.488C1.888-0.576,2.062-0.65,2.25-0.71z"/>
</g>
</svg>
