<?xml version="1.0" encoding="utf-8"?>
<!-- Generator: Adobe Illustrator 16.0.0, SVG Export Plug-In . SVG Version: 6.00 Build 0)  -->
<!DOCTYPE svg PUBLIC "-//W3C//DTD SVG 1.1//EN" "http://www.w3.org/Graphics/SVG/1.1/DTD/svg11.dtd">
<svg version="1.1" id="レイヤー_1" xmlns="http://www.w3.org/2000/svg" xmlns:xlink="http://www.w3.org/1999/xlink" x="0px"
	 y="0px" width="595.279px" height="841.89px" viewBox="0 0 595.279 841.89" enable-background="new 0 0 595.279 841.89"
	 xml:space="preserve">
<g>
	<path d="M0.342,3.924c0.024,0.072,0.036,0.132,0.036,0.204c0,0.228-0.156,0.408-0.396,0.468c-0.084,0.024-0.18,0.036-0.264,0.036
		c-0.204,0-0.384-0.096-0.468-0.312l-0.3-0.768c-0.863-2.339-1.199-3.19-2.398-3.19h-2.207v3.766c0,0.335-0.228,0.503-0.552,0.503
		c-0.335,0-0.576-0.168-0.576-0.516v-7.604c0-0.923,0.372-1.295,1.224-1.295h2.806c1.739,0,2.699,0.923,2.699,2.398
		c0,1.379-0.78,2.099-1.895,2.339c0.72,0.216,1.104,1.02,1.991,3.262L0.342,3.924z M-2.896-0.621c1.019,0,1.691-0.636,1.691-1.595
		c0-1.02-0.552-1.571-1.619-1.571h-2.435c-0.252,0-0.396,0.132-0.396,0.42v2.747H-2.896z"/>
	<path d="M5.06-1.533c1.847,0,3.046,1.211,3.046,3.059c0,1.847-1.199,3.214-3.142,3.214c-2.171,0-3.466-1.619-3.466-4.689
		c0-3.118,1.151-5.001,3.526-5.001c1.427,0,2.243,0.66,2.71,1.643c0.048,0.084,0.06,0.156,0.06,0.228
		c0,0.216-0.168,0.384-0.36,0.456C7.351-2.6,7.255-2.576,7.159-2.576c-0.18,0-0.348-0.072-0.444-0.276
		C6.427-3.536,5.948-3.967,4.976-3.967c-0.888,0-1.571,0.468-1.967,1.391C2.721-1.904,2.601-1.353,2.541-0.021
		C3.033-0.981,3.921-1.533,5.06-1.533z M2.805,1.562c0,1.259,0.912,2.183,2.123,2.183c1.259,0,2.075-0.899,2.075-2.219
		c0-1.271-0.816-2.099-2.039-2.099C3.705-0.573,2.805,0.338,2.805,1.562z"/>
</g>
</svg>
