<?xml version="1.0" encoding="utf-8"?>
<!-- Generator: Adobe Illustrator 16.0.0, SVG Export Plug-In . SVG Version: 6.00 Build 0)  -->
<!DOCTYPE svg PUBLIC "-//W3C//DTD SVG 1.1//EN" "http://www.w3.org/Graphics/SVG/1.1/DTD/svg11.dtd">
<svg version="1.1" id="レイヤー_1" xmlns="http://www.w3.org/2000/svg" xmlns:xlink="http://www.w3.org/1999/xlink" x="0px"
	 y="0px" width="595.279px" height="841.89px" viewBox="0 0 595.279 841.89" enable-background="new 0 0 595.279 841.89"
	 xml:space="preserve">
<path fill="#231815" d="M-115.187-13.864c-0.82-0.924-1.385-2.044-1.64-3.251c3.891,2.073,7.81,4.093,11.759,6.055
	c0.01,0.842,0.038,1.688,0.087,2.538l-8.293-4.052C-113.981-12.89-114.63-13.33-115.187-13.864"/>
<polyline fill="#231815" points="-106.473,7.698 -106.09,7.909 -106.376,8.267 -106.29,8.446 -105.52,8.247 -105.859,7.577 
	-106.473,7.698 "/>
<path fill="#231815" d="M-106.265,6.897l-0.174-1.023c-0.643,0.113-1.277,0.273-1.901,0.469c-1.543,0.532-2.352,2.22-1.796,3.754
	c0.698,1.529,2.16,2.574,3.834,2.743l1.005-0.619l-0.705-0.924h2.132l-0.589-0.9h-2.192l-0.412,0.604l0.649,0.808l-0.3,0.232
	c-0.775-0.329-1.472-0.822-2.038-1.441c-0.553-0.675-0.662-1.609-0.28-2.385c0.262-0.522,0.743-0.905,1.311-1.033
	C-107.236,7.064-106.754,6.973-106.265,6.897"/>
<path fill="#231815" d="M-97.113,19.45l-0.002,0.005c0.092-0.01,0.184,0.026,0.252,0.087c0.119,0.125,0.176,0.292,0.164,0.462
	c-0.02,0.172-0.106,0.324-0.25,0.421c0.598,0.061,1.189-0.124,1.652-0.503c0.218-0.286,0.285-0.661,0.188-1.004
	c-0.102-0.349-0.357-0.624-0.692-0.757c-0.31-0.092-0.643-0.065-0.938,0.065c-0.655,0.228-1.364,0.234-2.028,0.026
	c-0.342-0.113-0.569-0.447-0.55-0.808c-0.005-0.421,0.117-0.83,0.345-1.176c0.707,0.191,1.407,0.39,2.104,0.607l-0.206-3.212h0.399
	l-2.49-2.796l-1.937,0.019c-0.454,0.005-0.89-0.193-1.179-0.549l-0.726-0.9c0.648,0.169,1.328,0.21,1.991,0.109
	c0.191-0.032,0.38-0.07,0.562-0.126l-0.674-0.759c-0.651,0.184-1.352,0.113-1.959-0.191c-0.65-0.401-1.168-0.979-1.499-1.669
	l1.08-0.119c0.134,0.494,0.468,0.917,0.922,1.154c0.248,0.121,0.532,0.152,0.801,0.09l-0.38-0.426l0.617-1.807l-3.366,0.314
	l0.149-0.568l3.787-1.413l0.614-1.79c-0.852-0.62-1.562-1.41-2.101-2.31c-1.203-2.228-2.021-4.645-2.407-7.151
	c-3.352-1.533-6.648-3.183-9.889-4.944c0.307,1.031,0.778,2.01,1.397,2.889c0.553,0.646,1.243,1.154,2.021,1.487
	c1.551,0.685,3.107,1.364,4.665,2.035c0.079,0.442,0.183,0.878,0.312,1.311c-1.009-0.283-2.009-0.61-2.997-0.968
	c-0.6-0.21-1.162-0.522-1.666-0.919c0.224,0.984,0.659,1.911,1.283,2.709c0.281,0.339,0.654,0.581,1.078,0.697
	c0.922,0.196,1.853,0.348,2.787,0.469c0.111,0.406,0.238,0.803,0.385,1.195c-0.791-0.039-1.576-0.123-2.351-0.266
	c-0.654-0.094-1.279-0.333-1.83-0.685c0.232,0.808,0.634,1.551,1.181,2.189c0.387,0.36,0.902,0.539,1.427,0.505
	c0.747,0.007,1.489-0.022,2.225-0.084c0.144,0.36,0.297,0.718,0.454,1.066l-2.631,0.266c-0.825,0.097-1.662-0.005-2.439-0.3
	c0.312,0.609,0.676,1.195,1.085,1.739c0.225,0.339,0.56,0.593,0.951,0.718c0.371,0.078,0.758,0.065,1.125-0.034l2.567-0.738
	l0.475,0.873l-2.373,0.978l-0.253,0.822c-0.83,0.114-1.654,0.3-2.456,0.557c-0.115,0.039-0.224,0.087-0.333,0.14l1.175,0.646
	c0.614-0.138,1.241-0.245,1.87-0.314l2.291,3.583h-3.314l-0.412,0.604l0.649,0.808l-0.3,0.232c-0.647-0.275-1.238-0.663-1.747-1.142
	l-0.572,0.716c0.756,0.692,1.711,1.123,2.729,1.224l1.005-0.619l-0.705-0.924h3.172c-0.002,0.169-0.029,0.338-0.076,0.503
	c-0.122,0.339-0.278,0.667-0.461,0.977c-0.047,0.078-0.03,0.182,0.05,0.23c0.102,0.065,0.225,0.08,0.331,0.036h0.005l1.061-0.295
	l-1.281,3.674l2.294-0.251l-0.659,1.613c-0.134,0.256-0.366,0.445-0.64,0.525c-0.299,0.065-0.604,0.094-0.908,0.087
	c-0.55,0-1.095-0.116-1.598-0.332c-0.268-0.097-0.56-0.094-0.828,0.007c-0.503,0.234-0.763,0.796-0.612,1.328
	c0.175,0.689,0.86,1.117,1.558,0.987c-0.156-0.167-0.18-0.411-0.059-0.6c0.124-0.174,0.305-0.29,0.513-0.338h2.331l0.877,1.101
	l1.068-1.101H-97.113"/>
<path fill="#231815" d="M-93.555,1.172c1.117-0.286,2.299-0.157,3.324,0.365c0.245,0.121,0.437,0.334,0.531,0.598
	c-0.947-0.562-2.079-0.704-3.129-0.382c-0.733,0.261-1.219,0.951-1.219,1.727c0.474-0.542,1.113-0.912,1.814-1.047
	c0.861-0.165,1.751-0.053,2.551,0.317c0.763,0.387,1.35,1.062,1.619,1.877C-87.611,5.85-87.663,7.2-88.2,8.39
	c-0.127,0.261-0.305,0.491-0.527,0.675c0.459-0.989,0.515-2.124,0.156-3.157c-0.243-0.581-0.64-1.083-1.14-1.458
	c-0.051-0.032-0.116-0.02-0.156,0.026c-0.034,0.046-0.034,0.111,0.004,0.152c0.237,0.191,0.414,0.44,0.509,0.726
	c0.55,1.212,0.414,2.62-0.348,3.704c-0.784,1.164-2.12,1.831-3.521,1.754h-0.002l-7.876,0.075c-0.454,0.005-0.89-0.193-1.179-0.549
	l-0.097-0.121l-0.218,2.721l0.676-0.188l-1.281,3.674l2.294-0.251l-0.659,1.613c-0.134,0.256-0.366,0.445-0.64,0.525
	c-0.299,0.065-0.604,0.094-0.908,0.087c-0.55,0-1.095-0.116-1.598-0.332c-0.268-0.097-0.56-0.094-0.828,0.007
	c-0.503,0.234-0.763,0.796-0.612,1.328c0.175,0.689,0.86,1.117,1.558,0.987c-0.156-0.167-0.18-0.411-0.059-0.6
	c0.124-0.174,0.305-0.29,0.513-0.338h2.331l0.877,1.101l1.068-1.101h2.751l-0.002,0.005c0.092-0.01,0.184,0.026,0.252,0.087
	c0.119,0.125,0.176,0.292,0.164,0.462c-0.02,0.172-0.106,0.324-0.25,0.421c0.598,0.061,1.189-0.124,1.652-0.503
	c0.218-0.286,0.285-0.661,0.188-1.004c-0.102-0.349-0.357-0.624-0.692-0.757c-0.31-0.092-0.643-0.065-0.938,0.065
	c-0.655,0.228-1.364,0.234-2.028,0.026c-0.342-0.113-0.569-0.447-0.55-0.808c-0.005-0.421,0.117-0.83,0.345-1.176
	c0.707,0.191,1.407,0.39,2.104,0.607l-0.206-3.212h1.052l0.33,3.333l2.539,0.518l0.279-2.247h0.83l0.414,2.16l2.247-0.464
	l0.302-3.208l0.958-0.147l-0.102,3.094c0.583-0.152,1.167-0.281,1.761-0.377c0.118,0.459,0.123,0.938,0.016,1.398
	c-0.023,0.291-0.218,0.535-0.496,0.617c-0.572,0.155-1.179,0.171-1.754,0.029c-0.386-0.116-0.808-0.07-1.161,0.116
	c-0.337,0.239-0.518,0.639-0.468,1.04c0.046,0.411,0.324,0.757,0.703,0.902c0.414,0.157,0.86,0.196,1.291,0.104
	c-0.094-0.106-0.18-0.218-0.253-0.341c-0.066-0.141-0.054-0.303,0.03-0.431c0.087-0.128,0.23-0.201,0.386-0.189h2.195l0.892,0.973
	l0.839-0.975h2.597c0.074,0,0.149,0.027,0.198,0.085c0.052,0.051,0.081,0.125,0.076,0.198c0.005,0.172-0.052,0.346-0.151,0.486
	c0.26,0.152,0.572,0.198,0.867,0.13c0.399-0.08,0.745-0.338,0.934-0.696c0.203-0.341,0.179-0.774-0.057-1.089
	c-0.257-0.481-0.837-0.68-1.335-0.459c-0.149,0.077-0.307,0.13-0.471,0.16c-0.433,0.087-0.875,0.119-1.316,0.082
	c-0.27,0.029-0.542-0.046-0.754-0.213c-0.662-0.508-1.068-1.274-1.113-2.107c0.803,0.005,1.607,0.061,2.405,0.167
	c-0.572-1.03-1.078-2.092-1.515-3.183c0.428-0.017,0.854,0.026,1.27,0.128l0.148-0.239c-0.872-0.864-1.645-1.826-2.306-2.862
	c-0.19-0.254-0.215-0.59-0.06-0.868c0.667,0.36,1.357,0.66,2.073,0.905c0.278,0.135,0.612,0.084,0.827-0.133
	c0.572-0.544,1.143-1.081,1.72-1.616c-0.491,0.036-0.98-0.02-1.446-0.172c-0.929-0.297-1.833-0.665-2.71-1.098
	c0.324-0.297,0.634-0.607,0.934-0.929c0.887,0.341,1.787,0.653,2.69,0.941c0.756,0.157,1.539-0.061,2.104-0.583
	c0.582-0.588,1.144-1.188,1.699-1.797c-0.537,0.433-1.241,0.609-1.919,0.484c-1.113-0.167-2.205-0.433-3.267-0.789
	c0.237-0.375,0.471-0.75,0.688-1.13c0.993,0.23,1.991,0.436,3,0.622c0.936,0.128,1.87-0.237,2.467-0.962
	c0.626-0.675,1.218-1.376,1.773-2.107c-0.594,0.457-1.314,0.711-2.063,0.726c-1.35,0.152-2.72,0.084-4.044-0.203
	c0.199-0.409,0.391-0.818,0.58-1.239c0.647,0.121,1.3,0.174,1.959,0.155c0.673,0.02,1.3-0.351,1.612-0.948
	c0.286-0.648,0.595-1.279,0.937-1.899c-1.249,0.682-2.65,1.038-4.072,1.038c0.136-0.462,0.255-0.934,0.354-1.403l3.245-0.581
	c0.307-0.046,0.585-0.213,0.775-0.462c0.622-0.762,1.063-1.662,1.286-2.62c-0.339,0.355-0.755,0.624-1.222,0.791
	c-1.238,0.457-2.513,0.817-3.809,1.062c0.102-0.436,0.18-0.878,0.232-1.326c1.93-0.559,3.827-1.209,5.695-1.945
	c0.584-0.269,1.072-0.707,1.407-1.258c0.594-0.9,1.092-1.87,1.478-2.878c-0.544,0.488-1.189,0.856-1.88,1.086
	c-2.729,1.105-5.462,2.208-8.191,3.319c-0.223,2.954-1.221,5.796-2.903,8.239c-0.711,1.079-1.744,1.914-2.95,2.385
	c-0.411,0.184-0.891,0.16-1.281-0.068c-0.234-0.179-0.336-0.489-0.258-0.774c0.527,0.005,1.052-0.087,1.553-0.273
	c0.458-0.191,0.862-0.498,1.169-0.888c-0.905,0.02-1.791-0.266-2.515-0.803c-0.232,0.254-0.404,0.554-0.503,0.883
	c-0.047,0.254-0.079,0.508-0.088,0.767c-1.061-0.96-1.36-2.501-0.731-3.783c0.112-0.31,0.305-0.585,0.562-0.791
	c0.491-0.336,0.967-0.692,1.427-1.067c0.702-0.617,1.041-1.546,0.899-2.47c-0.076-0.791-0.2-1.58-0.374-2.361
	c-0.054-0.416-0.064-0.837-0.031-1.253c0.034-0.617,0.258-1.207,0.644-1.686c0.532-0.6,1.179-1.096,1.897-1.452l11.882-6.63
	c-0.002,0.564-0.208,1.113-0.577,1.543c-0.385,0.31-0.801,0.573-1.244,0.789c-1.791,0.936-3.554,1.928-5.291,2.973
	c-0.277,0.15-0.523,0.361-0.719,0.615c-0.341,0.457-0.52,1.025-0.504,1.594l0.002,0.004l11.277-6.151
	c0.822-0.483,1.494-1.192,1.94-2.034c0.716-1.345,1.293-2.767,1.714-4.229l-20.436,11.739c-1.345,0.919-1.964,2.598-1.534,4.168
	c0.154,0.598,0.265,1.2,0.333,1.807c0.059,0.467,0.019,0.941-0.123,1.386c-0.097,0.329-0.265,0.634-0.497,0.888
	c-0.25,0.278-0.55,0.513-0.885,0.68c-0.445,0.21-0.852,0.493-1.198,0.837c-0.223,0.264-0.364,0.583-0.398,0.921
	c-0.009,0.368-0.065,0.726-0.172,1.079c-0.166,0.53-0.577,0.948-1.1,1.127c-0.285,0.097-0.574,0.152-0.872,0.174
	c-0.548,0.061-1.097,0.039-1.635-0.068c-0.604-0.051-1.127-0.433-1.357-0.997c-0.114-0.346-0.156-0.713-0.139-1.074
	c0-0.462-0.197-0.897-0.546-1.198c-0.3-0.215-0.622-0.406-0.959-0.563c-0.735-0.239-1.302-0.827-1.51-1.575
	c-0.21-0.91-0.204-1.86,0.017-2.767c0.146-0.772,0.179-1.563,0.09-2.342c-0.114-0.895-0.537-1.722-1.199-2.332
	c-0.593-0.462-1.217-0.893-1.865-1.279l-18.853-10.522c0.387,1.342,0.853,2.666,1.382,3.955c0.437,0.842,1.104,1.543,1.927,2.02
	c3.75,2.194,7.558,4.284,11.422,6.27c0.083-0.849-0.295-1.676-0.992-2.163h-0.004l-5.734-3.253
	c-0.695-0.416-1.146-1.144-1.218-1.955l11.703,6.485c0.929,0.423,1.683,1.149,2.139,2.061c0.354,0.847,0.435,1.783,0.25,2.685
	c-0.275,1.214-0.288,2.477-0.037,3.696c0.188,0.651,0.595,1.222,1.159,1.604c0.337,0.203,0.677,0.401,1.018,0.593
	c0.513,0.317,0.848,0.849,0.91,1.446c0.059,0.474,0.017,0.956-0.127,1.41c-0.235,0.641-0.671,1.186-1.244,1.565
	c0.021-0.3,0.005-0.603-0.036-0.897c-0.065-0.365-0.285-0.687-0.604-0.878c-0.907,0.356-1.883,0.494-2.851,0.385
	c0.703,0.871,1.684,1.471,2.771,1.703c0.045,0.084,0.05,0.186,0.018,0.278c-0.035,0.09-0.104,0.162-0.191,0.204
	c-0.515,0.264-1.132,0.242-1.625-0.068c-1.126-0.663-2.071-1.599-2.74-2.726c-1.203-2.228-2.021-4.645-2.407-7.151
	c-3.352-1.533-6.648-3.183-9.889-4.944c0.307,1.031,0.778,2.01,1.397,2.889c0.553,0.646,1.243,1.154,2.021,1.487
	c1.551,0.685,3.107,1.364,4.665,2.035c0.079,0.442,0.183,0.878,0.312,1.311c-1.009-0.283-2.009-0.61-2.997-0.968
	c-0.6-0.21-1.162-0.522-1.666-0.919c0.224,0.984,0.659,1.911,1.283,2.709c0.281,0.339,0.654,0.581,1.078,0.697
	c0.922,0.196,1.853,0.348,2.787,0.469c0.111,0.406,0.238,0.803,0.385,1.195c-0.791-0.039-1.576-0.123-2.351-0.266
	c-0.654-0.094-1.279-0.333-1.83-0.685c0.232,0.808,0.634,1.551,1.181,2.189c0.387,0.36,0.902,0.539,1.427,0.505
	c0.747,0.007,1.489-0.022,2.225-0.084c0.144,0.36,0.297,0.718,0.454,1.066l-2.631,0.266c-0.825,0.097-1.662-0.005-2.439-0.3
	c0.312,0.609,0.676,1.195,1.085,1.739c0.225,0.339,0.56,0.593,0.951,0.718c0.371,0.078,0.758,0.065,1.125-0.034l2.567-0.738
	l0.475,0.873l-0.971,0.399l0.451,0.682l3.557-1.321l0.641,0.665h4.808c-0.549-0.31-0.8-0.967-0.596-1.567
	C-95.114,1.999-94.418,1.353-93.555,1.172"/>
<path fill="#231815" d="M-116.29-13.736l-0.931-1.396c-7.443,12.131-4.957,27.876,5.859,37.126
	c10.814,9.255,26.751,9.272,37.585,0.048c10.837-9.233,13.356-24.968,5.945-37.124l-0.802,1.633
	c6.509,11.572,3.796,26.142-6.441,34.598c-10.234,8.455-25.057,8.365-35.191-0.213C-120.401,12.362-122.935-2.244-116.29-13.736"/>
<path fill="#231815" d="M-72.845-21.208l-1.35,0.818c-10.341-9.304-26.011-9.396-36.461-0.208l-1.408-0.782
	C-100.937-31.533-83.88-31.462-72.845-21.208"/>
<polyline fill="#231815" points="-106.139,7.628 -106.647,7.729 -106.29,8.446 -105.82,8.322 -106.09,7.909 -106.139,7.628 "/>
<path fill="#231815" d="M-83.591-8.073v1.164c0.79-0.194,1.511-0.598,2.086-1.168c0.398-0.588,0.551-1.304,0.433-1.998
	C-81.765-9.239-82.622-8.562-83.591-8.073"/>
<path fill="#231815" d="M-103.691-8.947c0.076,0.351,0.258,0.67,0.522,0.907c0.599,0.503,1.303,0.875,2.056,1.088
	c-0.023-0.426-0.023-0.854-0.006-1.279c-1.057-0.496-1.974-1.253-2.655-2.202C-103.825-9.934-103.798-9.433-103.691-8.947"/>
<path fill="#231815" d="M-85.689-1.477c-0.188,0.339-0.45,0.634-0.762,0.861c0.544,0.297,1.134,0.498,1.749,0.59
	c0.412,0.089,0.842-0.022,1.156-0.303c0.263-0.307,0.456-0.653,0.582-1.03C-83.861-1.097-84.82-1.143-85.689-1.477"/>
<path fill="#231815" d="M-84.95-2.433c0.683,0.291,1.461,0.273,2.13-0.051c0.567-0.355,0.904-0.984,0.904-1.654
	c-0.723,0.431-1.559,0.619-2.394,0.546C-84.477-3.182-84.693-2.795-84.95-2.433"/>
<path fill="#231815" d="M-90.806,9.038c-0.423,0.527-1.075,0.825-1.749,0.798c0.288-0.138,0.538-0.343,0.726-0.592
	c0.35-0.583,0.605-1.212,0.756-1.87c0.253-1.035,0-2.133-0.681-2.954c0.555,0.157,1.03,0.522,1.317,1.028
	c0.227,0.486,0.35,1.016,0.359,1.553C-90.1,7.739-90.358,8.451-90.806,9.038"/>
<path fill="#231815" d="M-100.712,6.373c0,0.45-0.175,0.885-0.492,1.207c-0.25,0.276-0.624,0.414-0.997,0.368l0.038-0.447
	l-1.092-1.645l6.384-0.598l-0.023,0.273c-0.53,0.508-0.941,1.127-1.208,1.812c-0.295,0.614-0.733,1.154-1.278,1.565
	c-0.492,0.334-1.047,0.551-1.635,0.639c-0.433,0.063-0.875,0.07-1.31,0.019l0.064-0.832c0.545,0.083,1.098-0.005,1.595-0.242
	c0.805-0.479,1.316-1.338,1.35-2.279L-100.712,6.373"/>
<path fill="#231815" d="M-93.414,9.977c0.344-0.327,0.629-0.714,0.83-1.147c0.535-0.965,0.317-2.172-0.525-2.888
	c0.252,0.999,0.071,2.061-0.491,2.917c-0.23,0.474-0.604,0.863-1.062,1.12V9.977H-93.414"/>
<path fill="#231815" d="M-97.325,9.999h1.685c0.299-0.312,0.507-0.701,0.596-1.125c0.052-0.566-0.116-1.13-0.473-1.568
	c-0.002,0.499-0.139,0.992-0.39,1.427C-96.217,9.307-96.716,9.759-97.325,9.999"/>
<path fill="#231815" d="M-101.039-0.541c-0.496-0.217-0.881-0.626-1.065-1.132c0.924,0.188,1.869,0.23,2.805,0.124
	c0.201,0.346,0.44,0.665,0.716,0.955c-0.494,0.111-0.997,0.172-1.505,0.182C-100.41-0.362-100.739-0.408-101.039-0.541"/>
<path fill="#231815" d="M-102.168-2.786c-0.55-0.445-0.906-1.088-0.991-1.79c0.785,0.646,1.78,0.984,2.801,0.948
	c0.149,0.426,0.345,0.832,0.585,1.219C-100.585-2.169-101.467-2.302-102.168-2.786"/>
<path fill="#231815" d="M-103.097-5.57c-0.401-0.508-0.609-1.137-0.589-1.783c0.728,0.738,1.684,1.214,2.714,1.35
	c0.025,0.455,0.104,0.905,0.245,1.333C-101.611-4.593-102.485-4.924-103.097-5.57"/>
<path fill="#231815" d="M-81.948-5.335c-0.593,0.384-1.264,0.634-1.964,0.726c0.139-0.406,0.228-0.823,0.265-1.248
	c0.865-0.189,1.667-0.595,2.333-1.186c0.007,0.283-0.01,0.566-0.06,0.839C-81.416-5.838-81.629-5.519-81.948-5.335"/>
<path fill="#231815" d="M-102.119-12.183c-0.518-0.3-1.03-0.61-1.533-0.934c-0.034,0.666,0.111,1.318,0.421,1.904
	c0.538,0.842,1.286,1.529,2.173,1.996c0.071-0.486,0.076-0.975,0.019-1.463C-101.195-11.3-101.575-11.837-102.119-12.183"/>
<path fill="#231815" d="M-79.724-10.945c-0.03,0.702-0.087,1.401-0.178,2.095l8.911-3.931c0.692-0.336,1.271-0.854,1.688-1.5
	c0.574-0.917,1.005-1.918,1.293-2.963C-71.924-15.159-75.827-13.052-79.724-10.945"/>
<path fill="#231815" d="M-83.212-11.562c-0.547,0.687-0.762,1.57-0.599,2.429c0.748-0.37,1.407-0.897,1.927-1.556
	c0.29-0.399,0.503-0.854,0.626-1.328c0.047-0.298,0.047-0.6-0.005-0.897C-82.008-12.611-82.674-12.147-83.212-11.562"/>
<polyline fill="#231815" points="-16.53,18.763 -31.724,-1.518 -16.536,-1.518 -16.536,-7.418 -32.676,-7.418 -32.676,-17.077 
	-39.304,-17.077 -39.304,-7.418 -55.402,-7.418 -55.402,-1.518 -40.233,-1.518 -55.422,18.763 -48.175,18.763 -35.979,2.476 
	-23.783,18.763 -16.53,18.763 "/>
<polyline fill="#231815" points="12.852,13.289 12.852,3.867 24.373,3.867 24.373,-1.893 12.852,-1.893 12.852,-11.748 
	27.576,-11.748 27.576,-17.074 -9.49,-17.074 -9.49,-11.748 6.444,-11.748 6.444,13.289 1.297,13.289 1.297,-3.727 -4.592,-3.727 
	-4.592,13.289 -10.595,13.289 -10.595,18.768 29.217,18.768 29.217,13.289 12.852,13.289 "/>
<polyline fill="#231815" points="121.428,-14.351 111.033,-14.351 111.033,-17.072 105.84,-17.072 105.84,-14.351 96.987,-14.351 
	96.987,-17.072 91.795,-17.072 91.795,-14.351 81.408,-14.351 81.408,-10.214 91.795,-10.214 91.795,-7.657 96.987,-7.657 
	96.987,-10.214 105.84,-10.214 105.84,-7.657 111.033,-7.657 111.033,-10.214 121.428,-10.214 121.428,-14.351 "/>
<polyline fill="#231815" points="81.408,-8.134 90.305,-6.017 90.305,-1.956 81.408,-4.063 81.408,-8.134 "/>
<polyline fill="#231815" points="81.408,1.089 90.305,-1.022 90.305,3.044 81.408,5.151 81.408,1.089 "/>
<polyline fill="#231815" points="112.487,-6.017 121.383,-8.134 121.383,-4.063 112.487,-1.956 112.487,-6.017 "/>
<polyline fill="#231815" points="112.487,-1.022 121.383,1.089 121.383,5.151 112.487,3.044 112.487,-1.022 "/>
<path fill="#231815" d="M114.407,18.758h7.087l-8.33-8.408h8.264v-3.95h-16.977V5.444h6.574V-6.777h-6.574v-2.637H98.35v2.637
	h-6.574V5.444h6.574v0.956H81.408v3.95h8.219l-8.33,8.408h7.087l8.333-8.408h1.633v8.408h6.102V10.35h1.625L114.407,18.758z
	 M97.044-3.799h8.708v1.602h-8.708V-3.799z M97.044,0.678h8.708v1.597h-8.708V0.678z"/>
<polyline fill="#231815" points="56.371,-9.946 56.371,-13.163 56.367,-13.163 56.367,-17.074 51.863,-17.074 51.863,-13.163 
	49.182,-13.163 49.182,-17.074 44.354,-17.074 44.354,-13.163 41.635,-13.163 41.635,-17.074 37.126,-17.074 37.126,-9.946 
	44.354,-9.946 44.354,-8.702 37.126,-8.702 37.126,-5.001 44.354,-5.001 44.354,-3.681 37.126,-3.681 37.126,3.862 41.635,3.862 
	41.635,-0.381 44.354,-0.381 44.354,3.862 49.182,3.862 49.182,-0.381 51.863,-0.381 51.863,3.862 56.367,3.862 56.367,-0.381 
	56.371,-0.381 56.371,-3.681 49.182,-3.681 49.182,-5.001 56.371,-5.001 56.371,-8.702 49.182,-8.702 49.182,-9.946 56.371,-9.946 
	"/>
<rect x="67.272" y="-17.074" fill="#231815" width="5.51" height="20.941"/>
<rect x="59.217" y="-17.074" fill="#231815" width="5.51" height="20.941"/>
<path fill="#231815" d="M75.094,18.758l-5.896-8.268h5.873V6.329H57.988v-1.2h-5.893v1.2H35.017v4.161h5.868l-5.893,8.268h6.899
	l4.204-5.897l4.204,5.897h9.482l4.209-5.897l4.204,5.897H75.094z M55.041,15.729l-3.734-5.239h7.475L55.041,15.729"/>
</svg>
